<?xml version="1.0" standalone="no"?>
<!DOCTYPE svg PUBLIC "-//W3C//DTD SVG 20010904//EN"
 "http://www.w3.org/TR/2001/REC-SVG-20010904/DTD/svg10.dtd">
<svg version="1.0" xmlns="http://www.w3.org/2000/svg"
 width="512.000000pt" height="512.000000pt" viewBox="0 0 512.000000 512.000000"
 preserveAspectRatio="xMidYMid meet">
<metadata>
Created by potrace 1.14, written by Peter Selinger 2001-2017
</metadata>
<g transform="translate(0.000000,512.000000) scale(0.100000,-0.100000)"
fill="#000000" stroke="none">
<path d="M885 4639 c-302 -38 -564 -254 -660 -544 -17 -51 -21 -67 -31 -120
-4 -16 -8 -532 -9 -1145 -2 -613 -3 -1118 -4 -1122 -1 -5 -11 -8 -24 -8 -40 0
-107 -51 -133 -103 -24 -47 -25 -51 -21 -255 4 -204 12 -260 48 -347 7 -16 13
-32 14 -35 5 -20 55 -105 91 -156 116 -165 336 -298 530 -321 33 -4 887 -7
1899 -7 l1840 0 85 22 c169 44 325 144 433 277 56 70 130 214 153 300 21 80
32 426 14 488 -13 48 -54 98 -103 125 -30 16 -156 17 -2222 17 -1937 0 -2191
2 -2196 15 -3 8 -5 508 -4 1110 l2 1095 22 58 c51 131 173 234 303 254 24 4
777 7 1673 7 l1630 -1 55 -22 c112 -44 199 -130 241 -238 l22 -58 2 -730 c2
-488 6 -739 13 -756 18 -46 71 -97 118 -115 110 -42 239 25 263 138 4 18 6
362 6 763 -2 797 -1 786 -62 929 -54 129 -168 270 -279 347 -61 42 -197 104
-259 118 -27 6 -61 14 -75 17 -34 8 -3312 11 -3375 3z m3832 -3393 c-15 -168
-111 -289 -277 -352 -42 -16 -181 -17 -1855 -19 -1321 -1 -1825 2 -1865 10
-134 28 -254 131 -295 255 -18 55 -29 134 -22 154 5 11 343 14 2162 13 l2157
0 -5 -61z"/>
<path d="M2500 3882 c-54 -9 -131 -78 -145 -133 -5 -17 -25 -33 -68 -53 -67
-32 -142 -102 -181 -169 -48 -81 -64 -146 -62 -248 1 -86 5 -101 37 -169 63
-130 141 -193 333 -266 224 -85 246 -95 270 -128 63 -85 18 -136 -120 -136
-81 0 -147 25 -209 79 -60 53 -112 72 -172 64 -130 -17 -211 -156 -160 -275
31 -74 146 -168 256 -209 51 -19 68 -32 88 -64 14 -22 33 -47 42 -55 49 -47
150 -64 214 -36 40 17 85 60 97 92 5 13 17 24 27 24 36 0 179 80 229 127 173
169 183 444 21 640 -82 101 -147 141 -341 212 -215 80 -232 92 -206 141 14 26
62 39 129 36 55 -3 64 -7 110 -48 96 -87 209 -84 294 6 48 52 61 148 30 214
-27 57 -113 136 -187 171 -36 17 -70 31 -75 31 -5 0 -19 20 -31 44 -21 44 -94
105 -129 107 -9 1 -27 2 -41 3 -14 1 -36 0 -50 -2z"/>
</g>
</svg>
